<svg width="107" height="45" viewBox="0 0 107 45" fill="none" xmlns="http://www.w3.org/2000/svg">
<path d="M103.315 27.5727C104.364 29.1033 106.463 31.0165 106.113 32.1644C105.414 33.6949 100.166 32.1644 99.1166 33.3123C98.067 34.4602 100.516 39.0519 99.1166 40.1998C97.7172 40.9651 93.869 37.904 92.4696 38.2866C91.0702 39.0519 91.0702 44.0262 89.6709 44.4088C88.2715 44.7915 85.8226 40.1998 84.4232 40.1998C83.0239 40.1998 81.2746 43.6436 79.8753 44.4088H79.5255H79.1756C77.7762 43.6436 76.027 40.1998 74.6276 40.1998C73.2283 40.1998 71.4791 43.6436 70.0797 44.4088H69.7299H69.38H69.0302C67.6308 43.6436 65.8816 40.1998 64.4823 40.1998C63.0829 40.1998 61.3337 43.6436 59.9343 44.4088H59.5845H59.2346H58.8848C57.4854 43.6436 55.7362 40.1998 54.3368 40.1998C52.9375 40.1998 51.1882 43.6436 49.7889 44.4088H49.439H47.6898H47.34C45.9406 43.6436 44.1914 40.1998 42.792 40.1998C41.3927 40.1998 39.6435 43.6436 38.2441 44.4088C38.2441 44.4088 38.2441 44.4088 37.8943 44.4088H37.5444C36.1451 43.6436 34.3959 40.1998 32.9965 40.1998C31.5971 40.1998 29.8479 43.6436 28.0987 44.4088H26.6993C25.3 43.6436 23.5507 40.1998 21.8015 40.1998C20.0523 40.1998 17.9533 44.7915 16.5539 44.4088C14.8047 44.0262 15.1546 39.0519 13.7552 38.2866C12.3558 37.5213 8.15772 40.9651 7.10819 40.1998C6.05867 39.4345 8.15772 34.8428 7.10819 33.3123C6.05867 32.1644 0.811039 33.3123 0.111355 32.1644C-0.238487 31.3991 1.51071 29.4859 2.56024 27.9553C3.60976 26.4248 4.30945 24.5116 4.30945 22.2157C4.30945 20.3025 3.60976 18.772 2.91007 17.2414C2.21039 15.7109 -0.588329 13.415 0.111355 12.2671C0.811039 10.7366 6.05867 12.2671 7.10819 11.1192C8.15772 9.97128 5.70882 5.37961 7.10819 4.23169C8.50756 3.46641 12.3558 6.52752 13.7552 6.14489C15.1546 5.37961 15.1545 0.405292 16.5539 0.0226523C17.9533 -0.359987 20.4022 4.23169 21.8015 4.23169C23.2009 4.23169 24.9501 0.787931 26.6993 0.0226523C26.6993 0.0226523 26.6993 0.0226523 27.0492 0.0226523C27.0492 0.0226523 27.0492 0.0226523 27.399 0.0226523C28.7984 0.787931 30.5476 4.23169 32.2968 4.23169C33.6962 4.23169 35.4454 0.787931 36.8447 0.0226523H37.1946H37.5444C38.9438 0.787931 40.693 4.23169 42.0924 4.23169C43.4917 4.23169 45.2409 1.17057 46.6403 0.0226523C46.6403 0.0226523 46.9902 0.0226523 47.34 0.0226523H47.6898C49.0892 0.787931 50.8384 4.23169 52.2378 4.23169C53.6372 4.23169 55.3863 1.17057 56.7857 0.0226523C56.7857 0.0226523 57.1356 0.0226523 57.4854 0.0226523H57.8353C59.2346 0.787931 60.9838 4.23169 62.3832 4.23169C63.7825 4.23169 65.5318 1.17057 66.9311 0.0226523C66.9311 0.0226523 67.281 0.0226523 67.6308 0.0226523H67.9807C69.38 0.787931 71.1292 4.23169 72.5286 4.23169C73.928 4.23169 75.6772 0.787931 77.0765 0.0226523H77.4264H77.7763C79.1756 0.787931 80.9248 4.23169 82.3242 4.23169C84.0734 4.23169 86.1724 -0.359987 87.5718 0.0226523C89.321 0.405292 88.9712 5.37961 90.3705 6.14489C91.7699 6.91016 95.968 3.46641 97.0175 4.23169C98.4169 4.99697 95.968 9.97128 97.0175 11.1192C98.0671 12.2671 103.315 11.1192 104.014 12.2671C104.364 13.0324 102.615 14.9456 101.565 16.4762C101.565 16.4762 99.4664 19.9199 99.4664 22.2157V22.5984C101.565 24.1289 102.265 26.0421 103.315 27.5727C103.315 27.1901 103.315 27.1901 103.315 27.5727Z" fill="#F7900A"/>
</svg>
