<svg width="110" height="46" viewBox="0 0 110 46" fill="none" xmlns="http://www.w3.org/2000/svg">
<path d="M109.792 23.2286C109.792 37.7637 100.23 44.2662 87.9899 44.6487C87.9899 44.6487 87.9899 44.6487 87.6074 44.6487C84.1648 45.0312 70.3947 45.4137 54.3296 45.4137C54.3296 45.4137 36.7345 45.4137 22.5819 44.6487C10.3419 44.2662 1.1618 37.3812 0.779297 23.9936V23.6111V23.2286C0.779297 9.07599 10.3419 2.57345 22.5819 1.80844C23.3469 1.80844 30.997 1.04344 52.7996 1.04344C52.7996 1.04344 74.9848 0.660937 88.3724 1.80844C88.7549 1.80844 89.1374 1.80844 89.5199 1.80844C89.5199 1.80844 89.5199 1.80844 89.9024 1.80844C100.995 3.33845 109.792 10.2235 109.792 23.2286Z" fill="#04ADB6"/>
</svg>
