<svg width="1440" height="671" viewBox="0 0 1440 671" fill="none" xmlns="http://www.w3.org/2000/svg">
<g clip-path="url(#clip0_7828_451648)">
<path d="M1307.65 163.39C1308.7 168.623 1312.54 175.95 1310.1 177.695C1306.61 180.137 1294.05 170.717 1289.86 172.461C1285.67 174.206 1287.42 188.51 1282.88 189.208C1278.35 189.906 1271.02 176.997 1266.13 176.648C1261.6 176.648 1256.37 189.557 1251.48 188.51C1246.95 187.464 1245.9 173.159 1241.36 171.414C1236.83 169.321 1226.01 178.741 1222.17 175.95C1218.34 173.159 1223.92 160.598 1220.78 157.109C1217.29 153.62 1202.98 157.458 1200.19 153.62C1197.75 149.783 1208.92 141.06 1207.52 136.873C1206.12 132.687 1190.42 130.244 1189.73 125.709C1189.38 122.568 1196.7 120.475 1201.24 118.033C1205.78 115.939 1209.61 111.753 1212.06 105.821V105.472C1214.15 100.588 1214.5 95.7032 1213.45 91.5164C1212.75 86.6318 1208.22 77.9093 1210.66 75.8159C1214.15 73.3736 1226.71 82.7939 1230.9 81.0494C1235.08 79.3049 1233.34 65 1237.87 64.3022C1242.41 63.6044 1249.74 76.5137 1254.62 76.8626C1259.16 76.8626 1264.39 63.9533 1269.27 65C1273.81 66.0467 1274.86 80.3516 1279.39 82.0961C1283.93 84.1895 1294.74 74.7692 1298.58 77.5604C1302.77 80.3516 1296.84 92.912 1299.98 96.401C1303.47 99.89 1317.77 96.0521 1320.56 99.89C1323.01 103.728 1311.84 112.45 1313.24 116.637C1314.63 120.824 1330.33 123.266 1331.03 127.802C1331.38 130.593 1324.75 133.035 1320.21 135.478C1320.21 135.478 1311.14 141.758 1308.35 148.038L1308 148.736C1306.61 153.969 1306.26 158.854 1307.65 163.39Z" fill="#F76746"/>
<path d="M1250.09 108.612C1250.09 108.264 1249.74 107.915 1249.39 107.217C1249.04 106.519 1248.69 105.821 1247.99 105.472C1247.29 104.775 1246.6 104.426 1245.9 104.077C1244.5 103.379 1243.11 103.379 1241.71 103.379C1240.32 103.728 1239.27 104.077 1237.87 105.123C1236.83 106.17 1235.78 107.217 1235.08 108.612C1234.38 110.008 1234.04 111.753 1234.38 113.148C1234.38 114.544 1235.08 115.939 1235.78 116.986C1236.48 118.033 1237.52 119.079 1238.92 119.428C1239.62 119.777 1240.32 119.777 1241.01 119.777C1241.71 119.777 1242.41 119.777 1243.11 119.777C1243.8 119.777 1244.15 119.428 1244.5 119.079L1243.46 121.173L1246.25 122.568L1254.62 102.681L1251.83 101.286L1250.09 108.612ZM1245.9 116.637C1245.2 117.335 1244.5 117.684 1243.46 117.684C1242.41 117.684 1241.71 117.684 1240.66 117.335C1239.62 116.986 1238.92 116.288 1238.57 115.59C1238.22 114.893 1237.87 113.846 1237.87 113.148C1237.87 112.101 1237.87 111.055 1238.57 110.357C1238.92 109.31 1239.62 108.612 1240.32 107.915C1241.01 107.217 1241.71 106.868 1242.76 106.868C1243.8 106.868 1244.5 106.868 1245.55 107.217C1246.6 107.566 1247.29 108.264 1247.64 108.961C1247.99 109.659 1248.34 110.706 1248.34 111.404C1248.34 112.45 1248.34 113.497 1247.64 114.195C1247.29 115.242 1246.6 115.939 1245.9 116.637Z" fill="white"/>
<path d="M1267.83 107.888L1259.34 127.782L1262.23 129.015L1270.72 109.121L1267.83 107.888Z" fill="white"/>
<path d="M1290.91 126.406C1290.91 125.709 1290.56 125.36 1290.21 124.662C1289.86 123.964 1289.51 123.615 1288.81 122.917C1288.12 122.568 1287.77 121.871 1286.72 121.522C1285.32 120.824 1283.93 120.824 1282.88 121.173C1281.49 121.522 1280.44 121.871 1279.04 122.917C1278 123.964 1276.95 125.011 1276.25 126.406C1275.56 127.802 1275.21 129.198 1275.56 130.942C1275.56 132.338 1275.9 133.733 1276.95 134.78C1277.65 135.827 1278.7 136.873 1279.74 137.222C1280.44 137.571 1281.14 137.571 1281.84 137.92C1282.53 137.92 1283.23 137.92 1283.93 137.92C1284.63 137.92 1285.32 137.571 1285.67 137.222L1284.63 139.665L1287.42 141.06L1293.7 126.057L1290.91 124.662V126.406ZM1287.07 134.082C1286.37 134.78 1285.67 135.129 1284.63 135.129C1283.93 135.129 1282.88 135.129 1281.84 134.78C1280.79 134.431 1280.44 133.733 1279.74 133.035C1279.39 132.338 1279.04 131.64 1279.04 130.593C1279.04 129.546 1279.04 128.849 1279.74 127.802C1280.09 126.755 1280.79 126.057 1281.49 125.36C1282.18 124.662 1282.88 124.313 1283.93 124.313C1284.63 124.313 1285.67 124.313 1286.37 124.662C1287.42 125.011 1288.12 125.709 1288.46 126.406C1288.81 127.104 1289.16 127.802 1289.16 128.849C1289.16 129.895 1289.16 130.593 1288.81 131.64C1288.46 132.687 1287.77 133.384 1287.07 134.082Z" fill="white"/>
<path d="M71.1761 520.545L127.698 494.377C136.42 490.539 146.19 496.122 146.887 505.542L151.074 567.646C151.772 578.462 140.258 585.44 130.838 580.207L70.4783 544.27C60.7091 538.688 61.4069 525.081 71.1761 520.545Z" fill="#005069"/>
<path d="M111.3 519.498C111.3 519.149 111.3 518.8 110.951 518.451C110.602 518.103 110.602 517.405 110.253 517.056C109.904 516.707 109.555 516.358 108.858 516.009C107.811 515.311 107.113 515.311 106.066 515.311C105.02 515.311 104.322 515.66 103.275 516.009C102.577 516.707 101.531 517.405 101.182 518.451C100.484 519.498 100.135 520.545 100.135 521.592C100.135 522.638 100.135 523.685 100.833 524.383C101.182 525.081 101.88 526.127 102.926 526.476C103.275 526.825 103.973 526.825 104.322 527.174C105.02 527.174 105.368 527.174 105.717 527.174C106.066 527.174 106.415 527.174 106.764 526.825L106.066 528.221L108.16 529.267L115.835 516.009L113.742 514.962L111.3 519.498ZM107.811 524.732C107.113 525.081 106.764 525.429 106.066 525.429C105.368 525.429 104.671 525.429 104.322 525.081C103.624 524.732 103.275 524.383 102.926 523.685C102.577 522.987 102.577 522.638 102.577 521.94C102.577 521.243 102.926 520.545 103.275 519.847C103.624 519.149 104.322 518.8 104.671 518.451C105.369 518.103 105.717 517.754 106.415 517.754C107.113 517.754 107.811 517.754 108.16 518.103C108.857 518.451 109.206 518.8 109.555 519.498C109.904 520.196 109.904 520.545 109.904 521.243C109.904 521.94 109.555 522.638 109.206 523.336C108.857 523.685 108.16 524.383 107.811 524.732Z" fill="white"/>
<path d="M123.978 520.62L116.144 533.822L117.945 534.891L125.779 521.688L123.978 520.62Z" fill="white"/>
<path d="M138.514 535.896C138.514 535.548 138.514 534.85 138.165 534.501C138.165 534.152 137.816 533.454 137.467 533.105C137.118 532.756 136.769 532.407 136.072 532.059C135.374 531.71 134.327 531.361 133.28 531.361C132.234 531.361 131.536 531.71 130.489 532.059C129.791 532.756 128.745 533.454 128.396 534.501C127.698 535.548 127.349 536.594 127.349 537.641C127.349 538.688 127.349 539.734 127.698 540.432C128.047 541.13 128.745 541.828 129.443 542.526C129.791 542.874 130.489 542.874 130.838 543.223C131.536 543.223 131.885 543.223 132.234 543.223C132.583 543.223 133.28 543.223 133.629 542.874L132.583 544.27L134.676 545.317L140.607 535.548L138.514 534.501V535.896ZM135.025 540.781C134.327 541.13 133.978 541.479 133.28 541.479C132.583 541.479 131.885 541.479 131.536 541.13C130.838 540.781 130.489 540.432 130.14 539.734C129.791 539.037 129.791 538.688 129.791 537.99C129.791 537.292 130.14 536.594 130.489 535.896C130.838 535.199 131.187 534.85 131.885 534.501C132.583 534.152 132.932 533.803 133.629 533.803C134.327 533.803 134.676 533.803 135.374 534.152C136.072 534.501 136.421 534.85 136.769 535.548C137.118 536.245 137.118 536.594 137.118 537.292C137.118 537.99 136.769 538.688 136.421 539.385C136.072 540.083 135.723 540.432 135.025 540.781Z" fill="white"/>
<path d="M127.698 621.377V622.075C121.767 661.151 91.7613 674.061 57.5692 669.176H56.5225C22.6792 664.291 -2.09267 642.311 2.79192 604.978V603.932C2.79192 603.583 2.79192 603.583 2.79192 603.234V602.885C8.37432 565.204 37.333 551.946 70.1295 555.435C70.4784 555.435 71.1762 555.435 71.5251 555.435C71.874 555.435 72.5718 555.435 72.9207 555.784C73.2696 555.784 73.2696 555.784 73.6185 555.784H73.9674C74.3163 555.784 75.0141 555.784 75.363 556.133C108.857 562.064 132.931 584.393 127.698 621.377Z" fill="#F76746"/>
<path d="M49.5442 597.303C49.1953 596.954 49.1953 596.605 48.8464 596.256C48.1486 595.558 47.7997 595.209 47.1019 594.86C46.4041 594.512 45.7063 594.163 44.6596 594.163C43.264 593.814 41.8684 594.163 40.4728 594.512C39.0772 595.209 38.0305 595.907 37.3327 596.954C36.6349 598.001 35.9371 599.396 35.5882 601.141C35.2393 602.885 35.5882 604.281 35.9371 605.676C36.286 607.072 37.3327 608.119 38.3794 609.165C39.4261 610.212 40.8217 610.561 42.2173 610.91C42.9151 610.91 43.6129 610.91 44.3107 610.91C45.0085 610.91 45.7063 610.561 46.4041 610.212C47.1019 609.863 47.4508 609.514 47.7997 609.165L47.4508 611.259L50.5909 611.608L53.731 589.627L50.5909 589.278L49.5442 597.303ZM47.4508 606.374C46.753 607.072 46.0552 607.77 45.3574 608.119C44.6596 608.468 43.6129 608.467 42.5662 608.467C41.5195 608.467 40.8217 607.77 40.1239 607.421C39.4261 606.723 39.0772 606.025 38.7283 604.978C38.3794 603.932 38.3794 602.885 38.3794 601.838C38.3794 600.792 39.0772 599.745 39.4261 599.047C40.1239 598.349 40.8217 597.652 41.5195 597.303C42.2173 596.954 43.264 596.954 44.3107 596.954C45.3574 596.954 46.0552 597.652 46.753 598.001C47.4508 598.698 47.7997 599.396 48.1486 600.443C48.4975 601.49 48.4975 602.536 48.4975 603.583C48.4975 604.63 48.1486 605.676 47.4508 606.374Z" fill="white"/>
<path d="M66.9165 592.413L63.6282 614.145L66.7328 614.615L70.0211 592.882L66.9165 592.413Z" fill="white"/>
<path d="M94.5524 604.63C94.2035 603.932 93.8546 603.583 93.5057 602.885C93.1568 602.187 92.459 601.838 91.7612 601.489C91.0634 601.141 90.3656 600.792 89.3189 600.792C87.9233 600.443 86.5277 600.792 85.1321 601.141C83.7365 601.838 82.6898 602.536 81.992 603.583C81.2942 604.63 80.5964 606.025 80.2475 607.77C79.8986 609.514 80.2475 610.91 80.5964 612.305C80.9453 613.701 81.6431 614.748 82.6898 615.794C83.7365 616.841 84.7832 617.19 86.1788 617.539C86.8766 617.539 87.5744 617.539 88.6211 617.539C89.3189 617.539 90.0167 617.19 90.7145 616.841C91.4123 616.492 91.7612 616.143 92.459 615.794L92.1101 618.237L95.2502 618.586L97.6925 602.187L94.5524 601.838V604.63ZM92.8079 613.003C92.1101 613.701 91.4123 614.399 90.7145 614.748C90.0167 615.097 88.97 615.097 87.9233 615.097C86.8766 615.097 86.1788 614.748 85.481 614.05C84.7832 613.352 84.4343 612.654 84.0854 611.956C83.7365 610.91 83.7365 610.212 83.7365 608.816C83.7365 607.77 84.0854 606.723 84.7832 606.025C85.481 605.327 86.1788 604.63 86.8766 604.281C87.5744 603.932 88.6211 603.932 89.6678 603.932C90.7145 603.932 91.4123 604.281 92.1101 604.978C92.8079 605.676 93.1568 606.374 93.5057 607.072C93.8546 608.119 93.8546 608.816 93.8546 609.863C93.5057 611.259 93.1568 612.305 92.8079 613.003Z" fill="white"/>
<path d="M76.0608 498.215C60.7092 519.149 39.4264 517.405 21.2836 504.147L20.9347 503.798C2.7919 490.539 -4.88389 470.303 9.421 450.416L9.7699 450.067L10.1188 449.718C24.7726 429.831 45.3577 430.878 63.5004 443.089C63.8493 443.089 63.8493 443.438 64.1982 443.438C64.5471 443.787 64.5471 443.787 64.896 444.136C64.896 444.136 65.2449 444.136 65.2449 444.485H65.5938C65.9427 444.834 65.9427 444.834 66.2916 445.182C83.7366 458.441 91.0635 478.677 76.7586 498.564C76.0608 497.866 76.0608 497.866 76.0608 498.215Z" fill="#04ADB6"/>
<path d="M242.485 659.756C236.554 671.967 225.389 673.014 214.573 667.78H214.225C203.758 662.547 197.826 652.778 203.409 640.915V640.566C203.409 640.566 203.409 640.566 203.409 640.217C209.34 628.355 220.156 626.959 230.623 631.844C230.623 631.844 230.972 631.844 230.972 632.193C230.972 632.193 231.321 632.193 231.321 632.542C231.321 632.542 231.321 632.542 231.67 632.542C231.67 632.542 232.018 632.542 232.018 632.89C242.485 638.124 248.068 647.893 242.485 659.756C242.485 659.407 242.485 659.407 242.485 659.756Z" fill="#F76746"/>
<path d="M50.94 529.965C54.429 545.666 44.6598 555.086 31.0527 558.226H30.7038C17.0967 561.366 4.53631 556.482 0.698416 541.479V541.13V540.781C-2.79058 525.429 6.28081 516.358 19.539 512.869C19.8879 512.869 19.8879 512.869 20.2368 512.869C20.5857 512.869 20.5857 512.869 20.9346 512.869C20.9346 512.869 20.9346 512.869 21.2835 512.869C21.6324 512.869 21.6324 512.869 21.9813 512.869C35.2395 509.729 47.451 514.614 50.94 529.965C50.94 529.616 50.94 529.616 50.94 529.965Z" fill="#F79E00"/>
<path d="M130.838 613.003L128.047 628.704C126.652 637.426 130.141 645.8 137.119 651.033L145.492 656.965C146.888 658.011 147.586 659.756 146.888 661.5C146.19 663.594 147.237 666.036 149.679 666.734L164.333 669.874C173.404 671.967 183.173 668.478 189.105 661.151L195.385 653.476C200.269 647.544 203.409 640.566 205.154 633.239L207.247 624.168C208.643 618.586 207.247 613.003 203.758 608.467L192.594 594.86C189.453 591.023 184.569 588.58 179.684 588.58C172.706 588.231 166.077 587.534 159.099 586.487C154.564 585.789 149.679 587.882 147.586 592.069L142.003 603.583C141.305 604.63 140.259 605.676 138.863 605.676C134.676 606.374 131.536 609.165 130.838 613.003Z" fill="#F79E00"/>
<path d="M161.541 616.841C161.541 616.492 161.541 616.143 161.192 616.143C160.843 615.794 160.843 615.097 160.494 614.748C160.146 614.399 159.797 614.05 159.448 613.701C158.75 613.352 157.703 613.003 157.005 613.003C155.959 613.003 155.261 613.352 154.563 613.701C153.865 614.05 153.168 614.748 152.47 615.794C151.772 616.841 151.772 617.539 151.423 618.586C151.423 619.632 151.423 620.33 152.121 621.028C152.47 621.726 153.168 622.424 153.865 623.121C154.214 623.47 154.563 623.47 155.261 623.819C155.61 623.819 156.308 623.819 156.657 623.819C157.005 623.819 157.354 623.819 157.703 623.47L157.005 624.866L158.75 625.912L166.077 613.701L164.332 612.654L161.541 616.841ZM158.052 621.726C157.354 622.075 157.005 622.075 156.308 622.423C155.61 622.423 155.261 622.424 154.563 622.075C153.865 621.726 153.516 621.377 153.516 620.679C153.516 619.981 153.168 619.632 153.168 618.934C153.168 618.237 153.516 617.539 153.865 617.19C154.214 616.492 154.563 616.143 155.261 615.794C155.959 615.446 156.308 615.446 157.005 615.097C157.703 614.748 158.052 615.097 158.75 615.445C159.448 615.794 159.797 616.143 159.797 616.841C159.797 617.539 160.146 617.888 160.146 618.586C160.146 619.283 159.797 619.981 159.448 620.33C159.099 621.028 158.75 621.377 158.052 621.726Z" fill="white"/>
<path d="M173.194 618.055L165.803 630.303L167.595 631.385L174.986 619.137L173.194 618.055Z" fill="white"/>
<path d="M186.313 632.193C186.313 631.844 186.313 631.495 185.964 631.146C185.964 630.797 185.616 630.448 185.267 630.099C184.918 629.75 184.569 629.402 184.22 629.053C183.522 628.704 182.476 628.355 181.778 628.355C180.731 628.355 180.033 628.704 179.335 629.053C178.638 629.402 177.94 630.099 177.242 631.146C176.544 632.193 176.544 632.89 176.195 633.937C176.195 634.984 176.195 635.682 176.544 636.379C176.893 637.077 177.591 637.775 178.289 638.124C178.638 638.473 179.335 638.473 179.684 638.822C180.033 638.822 180.731 638.822 181.08 638.822C181.429 638.822 182.127 638.822 182.476 638.473L181.778 639.868L183.522 640.915L189.105 631.844L187.36 630.797L186.313 632.193ZM183.173 636.728C182.824 637.077 182.127 637.077 181.429 637.077C180.731 637.077 180.382 637.077 179.684 636.728C178.987 636.379 178.638 636.031 178.638 635.333C178.289 634.984 178.289 634.286 178.289 633.588C178.289 632.891 178.638 632.542 178.987 631.844C179.335 631.146 179.684 630.797 180.382 630.448C180.731 630.099 181.429 630.099 182.127 630.099C182.824 630.099 183.173 630.099 183.871 630.448C184.569 630.797 184.918 631.146 184.918 631.844C185.267 632.193 185.267 632.891 185.267 633.588C185.267 634.286 184.918 634.635 184.569 635.333C184.22 636.031 183.871 636.379 183.173 636.728Z" fill="white"/>
<path d="M144.096 468.559C148.283 477.63 144.096 484.259 136.769 488.446C134.676 489.493 134.327 490.191 124.209 494.726C124.209 494.726 113.044 499.96 104.322 503.798C96.6459 506.938 88.9702 505.542 84.7834 497.169C84.7834 497.169 84.7834 497.169 84.7834 496.82C84.7834 496.82 84.7834 496.82 84.7834 496.471C80.5966 487.748 84.7834 480.77 92.1103 476.932C92.4592 476.583 96.9949 473.792 110.602 467.512C110.602 467.512 116.533 464.721 125.256 461.232C125.605 461.232 125.605 461.232 125.954 460.883C132.932 458.441 140.258 460.534 144.096 468.559Z" fill="#F76746"/>
<path d="M92.8078 496.471L89.3188 489.493L90.3655 488.795L93.1567 495.075L96.6457 493.331L96.9946 494.377L92.8078 496.471Z" fill="white"/>
<path d="M100.484 492.633C100.135 492.982 99.7861 492.982 99.4372 492.982C99.0883 492.982 98.7394 492.982 98.3905 492.633C98.0416 492.633 97.6927 492.284 97.6927 491.935C97.3438 491.586 97.3438 491.237 96.9949 490.888C96.9949 490.539 96.646 490.191 96.646 489.842C96.646 489.493 96.646 489.144 96.646 488.795C96.646 488.446 96.9949 488.097 96.9949 487.748C97.3438 487.399 97.6927 487.05 98.0416 487.05C98.3905 486.702 99.0883 486.702 99.4372 486.702C99.7861 486.702 100.135 487.05 100.833 487.05C101.182 487.399 101.531 487.748 101.879 488.446V488.795L98.3905 490.539C98.7394 490.888 98.7394 491.237 99.0883 491.237C99.4372 491.237 99.7861 491.237 100.135 491.237C100.484 491.237 100.484 490.888 100.833 490.888L101.182 490.539V490.191L102.228 489.842C102.228 490.191 102.228 490.191 102.228 490.539C102.228 490.888 102.228 490.888 102.228 491.237C102.228 491.586 101.879 491.586 101.879 491.935C101.182 492.284 100.833 492.633 100.484 492.633ZM97.6927 490.191L100.135 489.144C99.7861 488.795 99.7861 488.446 99.4372 488.446C99.0883 488.446 98.7394 488.446 98.3905 488.446C98.0416 488.446 97.6927 488.795 97.6927 489.144C97.6927 489.493 97.6927 489.842 97.6927 490.191Z" fill="white"/>
<path d="M106.066 490.19C105.717 490.539 105.368 490.539 105.02 490.539C104.671 490.539 104.322 490.539 104.322 490.19C103.973 489.842 103.973 489.842 103.624 489.493L102.228 486.701L101.182 487.05L100.833 486.004L101.879 485.655L101.182 484.259L102.228 483.91L102.926 485.306L103.973 484.608L104.322 485.655L103.275 486.353L104.671 489.144C105.02 489.493 105.368 489.842 105.717 489.493C105.717 489.493 106.066 489.493 106.066 489.144L106.415 490.19H106.066Z" fill="white"/>
<path d="M105.019 484.957V483.561C104.67 483.561 104.67 483.561 104.321 483.561C103.972 483.561 103.972 483.213 103.972 483.213C103.972 482.864 103.972 482.864 103.972 482.515C103.972 482.166 104.321 482.166 104.321 482.166C104.67 482.166 104.67 482.166 105.019 482.166C105.368 482.166 105.368 482.515 105.368 482.515C105.368 482.864 105.368 482.864 105.368 483.213C105.368 483.561 105.368 483.91 105.019 484.608V484.957Z" fill="white"/>
<path d="M111.3 487.748C110.951 488.097 110.602 488.097 110.253 488.097C109.904 488.097 109.555 488.097 109.555 488.097C109.206 488.097 109.206 487.748 108.857 487.748C108.508 487.748 108.508 487.399 108.508 487.399L109.555 487.05L109.904 487.399H110.253C110.602 487.399 110.602 487.399 110.951 487.399C111.3 487.399 111.3 487.05 111.648 487.05C111.648 486.701 111.648 486.701 111.648 486.353L111.3 486.004C111.3 486.004 110.951 486.004 110.602 486.004L109.904 486.353C109.555 486.353 109.206 486.353 108.857 486.353C108.508 486.353 108.159 486.353 108.159 486.004C107.811 486.004 107.811 485.655 107.462 485.306C107.113 484.957 107.113 484.259 107.462 483.91C107.811 483.561 108.159 483.213 108.508 482.864C108.857 482.864 109.206 482.515 109.555 482.515C109.904 482.515 110.253 482.515 110.253 482.515C110.602 482.515 110.602 482.864 110.951 482.864L111.3 483.212L110.253 483.561L109.904 483.212H109.555C109.555 483.212 109.206 483.212 108.857 483.212C108.508 483.212 108.508 483.561 108.159 483.561C108.159 483.91 108.159 483.91 108.159 483.91L108.508 484.259C108.508 484.259 108.857 484.259 109.206 484.259H109.904C110.253 484.259 110.951 484.259 111.3 484.259C111.648 484.259 111.997 484.608 112.346 484.957C112.346 485.306 112.695 485.655 112.346 486.004C112.346 486.353 112.346 486.701 111.997 487.05C111.997 487.399 111.648 487.748 111.3 487.748Z" fill="white"/>
<path d="M115.836 485.306L112.347 477.979L113.393 477.63L116.882 484.957L115.836 485.306Z" fill="white"/>
<path d="M120.719 483.561C120.371 483.91 120.022 483.91 119.673 483.91C119.324 483.91 118.975 483.91 118.626 483.561C118.277 483.561 117.928 483.213 117.928 482.864C117.579 482.515 117.579 482.166 117.23 481.817C117.23 481.468 116.882 481.119 116.882 480.77C116.882 480.421 116.882 480.072 116.882 479.724C116.882 479.375 117.23 479.026 117.23 478.677C117.579 478.328 117.928 477.979 118.277 477.979C118.626 477.63 119.324 477.63 119.673 477.63C120.022 477.63 120.371 477.979 121.068 477.979C121.417 478.328 121.766 478.677 122.115 479.375V479.724L118.626 481.468C118.975 481.817 118.975 482.166 119.324 482.166C119.673 482.166 120.022 482.166 120.371 482.166C120.719 482.166 120.719 481.817 121.068 481.817L121.417 481.468V481.119L122.464 480.77C122.464 481.119 122.464 481.119 122.464 481.468C122.464 481.817 122.464 481.817 122.464 482.166C122.464 482.515 122.115 482.515 122.115 482.864C121.417 482.864 121.068 483.213 120.719 483.561ZM117.928 480.77L120.371 479.724C120.022 479.375 119.673 479.026 119.673 479.026C119.324 479.026 118.975 479.026 118.626 479.026C118.277 479.026 117.928 479.375 117.928 479.724C117.579 480.072 117.579 480.421 117.928 480.77Z" fill="white"/>
<path d="M123.511 475.537C123.859 475.537 124.208 475.188 124.208 475.188C124.557 475.188 124.557 475.188 124.906 475.188C125.255 475.188 125.255 475.188 125.255 475.537L124.906 474.839L125.953 474.49L128.395 479.724L127.348 480.072L127 479.375V479.724C127 480.072 126.651 480.072 126.651 480.421C126.651 480.77 126.302 480.77 125.953 481.119C125.604 481.468 125.255 481.468 124.906 481.468C124.557 481.468 124.208 481.468 123.859 481.119C123.511 481.119 123.162 480.77 123.162 480.421C122.813 480.072 122.813 479.724 122.464 479.375C122.464 479.026 122.115 478.677 122.115 478.328C122.115 477.979 122.115 477.63 122.115 477.281C122.115 476.932 122.464 476.583 122.464 476.235C122.813 475.886 123.162 475.886 123.511 475.537ZM124.208 476.235C123.859 476.235 123.511 476.583 123.511 476.932C123.511 477.281 123.162 477.63 123.511 477.63C123.511 477.979 123.511 478.328 123.859 478.677C123.859 479.026 124.208 479.375 124.557 479.375C124.906 479.724 124.906 479.724 125.255 479.724C125.604 479.724 125.953 479.724 126.302 479.724C126.651 479.724 127 479.375 127 479.026C127 478.677 127.348 478.328 127 478.328C126.651 478.328 127 477.63 126.651 477.281C126.651 476.932 126.302 476.583 125.953 476.583C125.604 476.235 125.604 476.235 125.255 476.235C124.557 476.235 124.557 476.235 124.208 476.235Z" fill="white"/>
<path d="M129.791 479.026L127.348 473.792L128.395 473.443L128.744 474.141C128.744 473.792 128.744 473.792 129.093 473.443C129.093 473.094 129.442 473.094 129.791 472.746H130.14L130.488 473.792C130.14 473.792 130.14 473.792 130.14 474.141C129.791 474.49 129.442 474.49 129.442 474.839C129.442 475.188 129.442 475.537 129.791 476.235L130.837 478.677L129.791 479.026Z" fill="white"/>
<path d="M133.28 477.281L130.838 472.048L131.884 471.699L132.233 472.397V472.048C132.233 471.699 132.233 471.699 132.582 471.35C132.931 471.001 132.931 471.001 133.28 471.001C133.629 470.652 133.978 470.652 134.327 470.652C134.676 470.652 135.024 471.001 135.373 471.001C135.722 471.35 135.722 471.35 136.071 471.699L137.467 474.839L136.42 475.188L135.024 472.048C135.024 471.699 134.676 471.35 134.327 471.35C133.978 471.35 133.629 471.35 133.28 471.35C132.931 471.35 132.931 471.699 132.582 471.699C132.582 472.048 132.582 472.048 132.582 472.397C132.582 472.746 132.582 472.746 132.931 473.094L134.327 475.886L133.28 477.281Z" fill="white"/>
<path d="M1400.09 623.121C1408.47 644.055 1397.65 659.407 1379.16 667.083H1378.81C1360.67 674.41 1341.83 670.921 1333.45 651.033C1333.45 651.033 1333.45 650.684 1333.1 650.684V650.335C1324.73 630.099 1335.2 615.097 1352.64 607.072C1352.99 607.072 1352.99 606.723 1353.34 606.723C1353.69 606.723 1353.69 606.374 1354.04 606.374H1354.39H1354.74C1355.09 606.374 1355.08 606.025 1355.43 606.025C1373.58 599.047 1392.07 602.885 1400.09 622.772C1399.74 623.121 1399.74 623.121 1400.09 623.121Z" fill="#F79E00"/>
<path d="M1319.5 567.297L1373.93 507.636C1382.3 498.564 1396.95 500.658 1402.54 511.473L1438.47 583.696C1444.75 596.256 1434.29 610.561 1420.33 608.816L1329.96 596.256C1316.36 594.163 1310.08 577.415 1319.5 567.297Z" fill="#005069"/>
<path d="M1366.95 545.666C1366.6 545.317 1366.6 544.968 1366.25 544.619C1365.9 544.27 1365.2 543.572 1364.51 543.572C1363.81 543.223 1363.11 542.874 1362.41 542.874C1361.02 542.525 1359.97 542.874 1358.58 543.223C1357.53 543.572 1356.48 544.619 1355.78 545.666C1355.09 546.712 1354.39 548.108 1354.39 549.503C1354.04 550.899 1354.39 552.295 1354.74 553.69C1355.09 555.086 1355.78 556.133 1356.83 556.83C1357.88 557.528 1358.92 558.226 1360.32 558.226C1361.02 558.226 1361.72 558.226 1362.41 558.226C1363.11 558.226 1363.81 557.877 1364.16 557.528C1364.51 557.179 1365.2 556.83 1365.55 556.481L1365.2 558.575L1368 558.924L1370.79 539.036L1368 538.688L1366.95 545.666ZM1365.2 554.039C1364.86 554.737 1364.16 555.435 1363.46 555.784C1362.76 556.133 1362.06 556.133 1361.02 556.133C1359.97 556.133 1359.27 555.784 1358.92 555.086C1358.23 554.388 1357.88 553.69 1357.53 552.992C1357.18 552.295 1357.18 551.248 1357.18 550.201C1357.18 549.155 1357.53 548.457 1358.23 547.759C1358.57 547.061 1359.27 546.363 1359.97 546.014C1360.67 545.666 1361.37 545.666 1362.41 545.666C1363.46 545.666 1364.16 546.014 1364.51 546.712C1365.2 547.41 1365.55 548.108 1365.9 548.806C1366.25 549.503 1366.25 550.55 1366.25 551.597C1366.25 552.295 1365.9 552.992 1365.2 554.039Z" fill="white"/>
<path d="M1382.46 540.932L1379.7 560.626L1382.46 561.013L1385.22 541.319L1382.46 540.932Z" fill="white"/>
<path d="M1407.42 551.946C1407.07 551.597 1406.72 550.899 1406.37 550.55C1406.03 550.201 1405.33 549.852 1404.98 549.503C1404.28 549.155 1403.58 548.806 1402.88 548.806C1401.49 548.457 1400.44 548.806 1399.4 549.155C1398.35 549.503 1397.3 550.55 1396.6 551.597C1395.91 552.644 1395.21 554.039 1395.21 555.435C1394.86 556.83 1395.21 558.226 1395.56 559.622C1395.91 561.017 1396.6 562.064 1397.65 562.762C1398.7 563.459 1399.74 564.157 1400.79 564.157C1401.49 564.157 1402.19 564.157 1402.88 564.157C1403.58 564.157 1404.28 563.808 1404.63 563.459C1405.33 563.111 1405.68 562.762 1406.03 562.413L1405.68 564.506L1408.47 564.855L1410.56 550.201L1407.77 549.852L1407.42 551.946ZM1406.03 559.622C1405.68 560.319 1404.98 561.017 1404.28 561.017C1403.58 561.366 1402.89 561.366 1401.84 561.366C1401.14 561.366 1400.09 561.017 1399.74 560.319C1399.05 559.622 1398.7 559.273 1398.35 558.226C1398 557.528 1398 556.481 1398 555.435C1398 554.388 1398.35 553.69 1399.05 552.992C1399.4 552.295 1400.09 551.946 1400.79 551.597C1401.49 551.248 1402.19 551.248 1403.23 551.248C1404.28 551.248 1404.98 551.597 1405.33 552.295C1406.03 552.992 1406.37 553.341 1406.72 554.388C1407.07 555.086 1407.07 556.133 1407.07 557.179C1406.72 557.877 1406.37 558.924 1406.03 559.622Z" fill="white"/>
<path d="M1412.65 464.023C1418.24 475.537 1412.65 484.608 1403.23 489.842C1403.23 489.842 1403.23 489.842 1402.88 489.842C1400.09 491.586 1399.74 491.935 1386.84 498.215C1386.84 498.215 1372.53 505.193 1361.02 509.729C1351.25 513.567 1341.13 511.822 1335.55 501.006V500.658C1335.55 500.658 1335.55 500.658 1335.55 500.309C1330.31 488.795 1335.2 480.072 1344.97 474.839C1345.67 474.49 1351.6 471.001 1369.04 462.627C1369.04 462.627 1376.72 458.79 1387.88 454.603C1388.23 454.603 1388.58 454.254 1388.93 454.254C1388.93 454.254 1388.93 454.254 1389.28 454.254C1398 451.114 1407.77 453.207 1412.65 464.023C1412.65 463.674 1412.65 464.023 1412.65 464.023Z" fill="#F76746"/>
<path d="M1346.01 499.96L1341.83 490.888L1343.22 490.191L1347.06 498.215L1351.6 496.122L1352.29 497.517L1346.01 499.96Z" fill="white"/>
<path d="M1356.13 495.424C1355.44 495.773 1355.09 495.773 1354.39 495.773C1354.04 495.773 1353.34 495.773 1352.99 495.424C1352.64 495.075 1352.29 495.075 1351.95 494.726C1351.6 494.377 1351.25 494.028 1351.25 493.68C1351.25 493.331 1350.9 492.982 1350.9 492.284C1350.9 491.935 1350.9 491.237 1350.9 490.888C1350.9 490.539 1351.25 490.191 1351.6 489.493C1351.95 489.144 1352.3 488.795 1352.99 488.446C1353.69 488.097 1354.04 488.097 1354.74 488.097C1355.44 488.097 1355.78 488.446 1356.48 488.795C1356.83 489.144 1357.53 489.842 1357.88 490.539L1358.23 490.888L1353.69 492.982C1354.04 493.331 1354.39 493.68 1354.74 494.028C1355.09 494.377 1355.78 494.377 1356.13 494.028C1356.48 494.028 1356.83 493.68 1356.83 493.68C1356.83 493.331 1357.18 493.331 1357.18 492.982C1357.18 492.633 1357.18 492.633 1357.18 492.284L1358.58 491.586C1358.58 491.935 1358.58 492.284 1358.58 492.633C1358.58 492.982 1358.58 493.331 1358.58 493.68C1358.58 494.028 1358.23 494.377 1357.88 494.726C1357.18 494.726 1356.48 495.075 1356.13 495.424ZM1352.64 492.284L1355.78 490.888C1355.44 490.191 1355.09 489.842 1354.74 489.842C1354.39 489.842 1354.04 489.842 1353.34 489.842C1352.99 490.191 1352.64 490.539 1352.29 490.888C1352.29 491.237 1352.3 491.586 1352.64 492.284Z" fill="white"/>
<path d="M1363.11 492.284C1362.76 492.633 1362.06 492.633 1361.71 492.633C1361.37 492.633 1361.02 492.284 1360.67 492.284C1360.32 491.935 1360.32 491.586 1359.97 491.237L1358.23 487.748L1357.18 488.446L1356.48 487.399L1357.53 486.702L1356.83 484.957L1358.23 484.259L1358.92 486.004L1360.32 485.306L1361.02 486.353L1359.62 487.05L1361.37 490.539C1361.71 491.237 1362.06 491.237 1362.76 490.888C1362.76 490.888 1363.11 490.539 1363.46 490.539L1364.16 491.586C1363.46 491.935 1363.46 491.935 1363.11 492.284Z" fill="white"/>
<path d="M1362.06 484.957L1362.41 482.864C1362.06 482.864 1362.06 482.864 1361.72 482.864C1361.37 482.864 1361.37 482.515 1361.37 482.515C1361.37 482.166 1361.37 482.166 1361.37 481.817C1361.37 481.468 1361.72 481.468 1361.72 481.119C1362.06 481.119 1362.06 481.119 1362.41 481.119C1362.76 481.119 1362.76 481.468 1363.11 481.817C1363.11 482.166 1363.11 482.515 1363.11 482.864C1363.11 483.213 1363.11 483.91 1362.76 484.608L1362.06 484.957Z" fill="white"/>
<path d="M1369.74 488.795C1369.04 489.144 1368.69 489.144 1368.34 489.144C1367.99 489.144 1367.65 489.144 1367.3 489.144C1366.95 489.144 1366.6 488.795 1366.6 488.795C1366.25 488.795 1366.25 488.446 1365.9 488.097L1367.3 487.399C1367.3 487.748 1367.65 487.748 1367.65 487.748C1367.65 487.748 1367.99 487.748 1368.34 487.748C1368.69 487.748 1368.69 487.748 1369.04 487.399C1369.39 487.05 1369.74 487.05 1369.74 486.702C1369.74 486.353 1369.74 486.353 1369.74 486.004C1369.74 485.655 1369.39 485.655 1369.39 485.655C1369.04 485.655 1369.04 485.655 1368.69 485.655L1367.65 486.004C1367.3 486.004 1366.95 486.004 1366.6 486.004C1366.25 486.004 1365.9 486.004 1365.55 485.655C1365.2 485.655 1364.85 485.306 1364.85 484.957C1364.51 484.259 1364.51 483.91 1364.85 483.213C1365.2 482.515 1365.55 482.166 1366.25 481.817C1366.6 481.468 1367.3 481.468 1367.65 481.468C1367.99 481.468 1368.34 481.468 1368.69 481.468C1369.04 481.468 1369.04 481.817 1369.39 481.817C1369.74 481.817 1369.74 482.166 1370.09 482.515L1368.69 483.213L1368.34 482.864H1367.99C1367.65 482.864 1367.65 482.864 1367.3 483.213C1366.95 483.561 1366.6 483.561 1366.6 483.91C1366.6 484.259 1366.6 484.259 1366.6 484.608C1366.6 484.957 1366.95 484.957 1366.95 484.957C1367.3 484.957 1367.3 484.957 1367.65 484.957L1368.69 484.608C1369.39 484.608 1370.09 484.608 1370.44 484.608C1370.79 484.608 1371.48 484.957 1371.48 485.655C1371.83 486.004 1371.83 486.353 1371.83 486.702C1371.83 487.05 1371.48 487.399 1371.48 487.748C1370.79 488.446 1370.44 488.795 1369.74 488.795Z" fill="white"/>
<path d="M1376.02 485.655L1371.48 476.235L1372.88 475.537L1377.42 484.957L1376.02 485.655Z" fill="white"/>
<path d="M1381.95 483.213C1381.25 483.561 1380.9 483.561 1380.21 483.561C1379.86 483.561 1379.16 483.561 1378.81 483.213C1378.46 482.864 1378.11 482.864 1377.76 482.515C1377.42 482.166 1377.07 481.817 1377.07 481.468C1376.72 481.119 1376.72 480.77 1376.72 480.072C1376.72 479.724 1376.72 479.026 1376.72 478.677C1376.72 478.328 1377.07 477.979 1377.42 477.281C1377.76 476.932 1378.11 476.583 1378.81 476.235C1379.51 475.886 1379.86 475.886 1380.56 475.886C1381.25 475.886 1381.6 476.235 1382.3 476.583C1382.65 476.932 1383.35 477.63 1383.7 478.328L1384.04 478.677L1379.51 480.77C1379.86 481.119 1380.21 481.468 1380.56 481.817C1380.9 482.166 1381.6 482.166 1381.95 481.817C1382.3 481.817 1382.65 481.468 1382.65 481.468C1382.65 481.119 1383 481.119 1383 480.77C1383 480.421 1383 480.421 1383 480.072L1384.39 479.375C1384.39 479.724 1384.39 480.072 1384.39 480.421C1384.39 480.77 1384.39 481.119 1384.39 481.468C1384.39 481.817 1384.04 482.166 1383.7 482.515C1383 482.515 1382.65 482.864 1381.95 483.213ZM1378.46 480.072L1381.6 478.677C1381.25 477.979 1380.9 477.63 1380.56 477.63C1380.21 477.63 1379.86 477.63 1379.16 477.63C1378.81 477.979 1378.46 478.328 1378.11 478.677C1378.11 479.026 1378.11 479.375 1378.46 480.072Z" fill="white"/>
<path d="M1385.79 473.094C1386.14 472.746 1386.49 472.746 1386.84 472.746C1387.18 472.746 1387.53 472.746 1387.88 472.746C1388.23 472.746 1388.23 473.094 1388.58 473.094L1388.23 472.048L1389.63 471.35L1392.77 477.979L1391.37 478.677L1391.02 477.63C1391.02 477.63 1391.02 477.979 1391.02 478.328C1391.02 478.677 1390.67 478.677 1390.67 479.026C1390.32 479.375 1389.98 479.375 1389.63 479.724C1389.28 480.072 1388.58 480.072 1388.23 480.072C1387.88 480.072 1387.18 480.072 1386.84 479.724C1386.49 479.375 1386.14 479.375 1385.79 479.026C1385.44 478.677 1385.09 478.328 1385.09 477.979C1384.74 477.63 1384.74 477.281 1384.74 476.583C1384.74 476.235 1384.74 475.537 1384.74 475.188C1384.74 474.839 1385.09 474.49 1385.44 474.141C1384.74 473.443 1385.44 473.443 1385.79 473.094ZM1386.49 474.141C1386.14 474.49 1385.79 474.49 1385.79 474.839C1385.79 475.188 1385.44 475.537 1385.44 475.886C1385.44 476.235 1385.44 476.583 1385.79 476.932C1385.79 477.281 1386.14 477.63 1386.49 477.979C1386.84 478.328 1387.18 478.328 1387.53 478.677C1387.88 478.677 1388.23 478.677 1388.58 478.677C1388.93 478.328 1389.28 478.328 1389.28 477.979C1389.28 477.63 1389.63 477.281 1389.63 476.932C1389.63 476.583 1389.63 476.235 1389.28 475.886C1388.93 475.537 1388.93 475.188 1388.58 474.839C1388.23 474.49 1387.88 474.49 1387.53 474.141C1387.53 473.792 1387.18 473.792 1386.49 474.141Z" fill="white"/>
<path d="M1393.81 477.63L1390.67 471.001L1392.07 470.303L1392.42 471.001C1392.42 470.652 1392.42 470.303 1392.77 469.954C1393.12 469.605 1393.12 469.257 1393.81 469.257C1393.81 469.257 1394.16 469.257 1394.51 468.908L1395.21 470.303C1394.86 470.303 1394.86 470.303 1394.51 470.652C1393.81 471.001 1393.46 471.35 1393.46 471.699C1393.46 472.048 1393.46 472.746 1393.81 473.443L1395.21 476.583L1393.81 477.63Z" fill="white"/>
<path d="M1398.7 475.188L1395.56 468.559L1396.95 467.861L1397.3 468.908C1397.3 468.908 1397.3 468.559 1397.3 468.21C1397.3 467.861 1397.65 467.861 1397.65 467.512C1398 467.163 1398 467.163 1398.35 466.814C1398.7 466.465 1399.4 466.465 1399.74 466.465C1400.09 466.465 1400.44 466.814 1400.79 467.163C1401.14 467.512 1401.49 467.861 1401.49 468.21L1403.58 472.397L1402.19 473.094L1400.09 468.908C1399.74 468.559 1399.74 468.21 1399.4 468.21C1399.05 468.21 1398.7 468.21 1398.35 468.21C1398 468.21 1397.65 468.559 1397.65 468.908C1397.65 469.257 1397.3 469.605 1397.65 469.954C1397.65 470.303 1397.65 470.652 1398 471.001L1399.74 474.839L1398.7 475.188Z" fill="white"/>
</g>
<defs>
<clipPath id="clip0_7828_451648">
<rect width="1440" height="671" fill="white"/>
</clipPath>
</defs>
</svg>
