<svg width="130" height="131" viewBox="0 0 130 131" fill="none" xmlns="http://www.w3.org/2000/svg">
<path d="M92.6263 116.633C91.4831 121.587 91.8642 129.97 88.8158 130.732C84.6242 131.494 77.0031 118.158 72.8116 118.158C68.2389 118.158 64.0474 131.494 59.8558 130.351C55.6642 129.208 54.14 114.347 49.9484 112.442C45.7569 110.537 35.8495 120.063 32.039 117.014C28.2285 114.347 33.1821 101.01 30.1337 97.5808C26.7043 94.1513 13.3674 97.9619 11.0811 94.1513C8.41376 89.9598 18.7022 81.1956 17.178 76.6229C15.2727 72.0503 0.792715 69.764 0.0306103 65.1914C-0.731494 60.6188 12.9864 57.5703 13.3674 52.9977C13.7485 48.8061 0.792715 40.0419 1.93587 35.8504C2.69798 33.183 10.319 33.9451 15.2727 33.564C20.2264 33.183 25.1801 31.2777 29.7527 27.0862H30.5148C34.3253 23.2756 36.6116 19.4651 37.3737 15.2735C38.8979 10.3199 38.1358 0.793565 41.1842 0.0314603C45.3758 -0.730644 52.9969 12.6062 57.1884 12.6062C61.38 12.6062 65.9526 -0.730644 70.1442 0.412512C74.3358 1.55567 75.86 16.4167 80.0516 18.322C84.2431 20.2272 94.1505 10.7009 97.961 13.7493C101.772 16.4167 96.8179 29.7535 99.8663 33.183C103.296 36.6125 116.633 32.8019 118.919 36.6125C121.586 40.804 111.298 49.9493 112.822 54.1409C114.346 58.3324 129.207 60.9998 129.969 65.5724C130.731 70.1451 117.014 73.1935 116.633 77.7661C116.252 81.9577 129.207 90.7219 128.064 94.9134C127.302 97.5808 120.443 96.8187 115.489 97.1998C115.489 97.1998 104.82 99.105 99.8663 103.678L99.1042 104.059C95.6747 107.488 93.3884 111.68 92.6263 116.633C92.6263 116.633 92.6263 116.252 92.6263 116.633Z" fill="#F79E00"/>
<path d="M62.9042 43.8548C62.9042 43.4738 62.9042 43.0927 62.9042 42.7117C62.9042 41.9496 62.5232 41.1875 62.1421 40.4254C61.7611 39.6633 61.38 38.9011 60.999 38.5201C59.8558 37.3769 58.7126 36.6148 57.5695 36.2338C56.4263 35.8527 54.9021 35.8527 53.3779 36.2338C51.8537 36.6148 50.7105 37.3769 49.5674 38.5201C48.4242 39.6633 47.6621 40.8064 47.2811 42.3306C46.9 43.8548 46.519 44.998 46.9 46.5222C47.2811 48.0464 47.6621 49.1896 48.8053 50.3327C49.1863 50.7138 49.9484 51.4759 50.7105 51.4759C51.4727 51.8569 51.8537 52.238 52.6158 52.238C53.3779 52.238 53.759 52.238 54.14 52.238L52.6158 53.7622L54.9021 56.0485L70.5253 41.5685L68.62 38.9012L62.9042 43.8548ZM56.0453 49.5706C55.2832 49.9517 54.14 49.9517 53.3779 49.5706C52.6158 49.1896 51.8537 48.8085 51.0916 48.0464C50.3295 47.2843 49.9484 46.5222 49.9484 45.7601C49.9484 44.998 49.9484 43.8548 50.3295 43.0927C50.7105 42.3306 51.0916 41.5685 51.8537 40.8064C52.6158 40.0443 53.3779 39.6633 54.5211 39.2822C55.2832 38.9011 56.4263 38.9011 57.1884 39.2822C57.9505 39.6633 58.7126 40.0443 59.4747 40.8064C60.2368 41.5685 60.6179 42.3306 60.6179 43.0927C60.6179 43.8548 60.6179 44.998 60.2368 45.7601C59.8558 46.5222 59.4747 47.2843 58.7126 48.0464C57.9505 48.4275 57.1884 49.1896 56.0453 49.5706Z" fill="white"/>
<path d="M79.1523 50.4255L63.4746 64.9019L65.5427 67.1415L81.2204 52.6652L79.1523 50.4255Z" fill="white"/>
<path d="M92.6265 76.2445C92.6265 75.4824 93.0075 75.1013 93.0075 74.3392C93.0075 73.5771 92.6265 72.815 92.6265 72.434C92.2454 71.6719 91.8644 71.2908 91.4833 70.5287C90.3402 69.3855 89.5781 68.6234 88.0539 68.6234C86.9107 68.2424 85.3865 68.2424 84.2433 68.6234C82.7191 69.0045 81.576 69.7666 80.4328 70.9097C79.2897 72.0529 78.5276 73.1961 77.7655 74.3392C77.3844 75.8634 77.0033 77.0066 77.3844 78.1497C77.7655 79.2929 78.1465 80.4361 78.9086 81.5792C79.2897 81.9603 80.0518 82.7224 80.8139 83.1034C81.576 83.4845 81.957 83.8655 82.7191 83.8655C83.4812 83.8655 84.2433 83.8655 84.6244 83.8655L82.7191 85.3897L85.0054 87.676L96.8181 76.6255L94.5317 74.3392L92.6265 76.2445ZM86.1486 81.5792C85.3865 81.9603 84.2433 81.9603 83.4812 81.5792C82.7191 81.1982 81.957 80.8171 81.1949 80.055C80.4328 79.2929 80.0518 78.5308 80.0518 77.7687C80.0518 77.0066 80.0518 76.2445 80.4328 75.1013C80.8139 74.3392 81.1949 73.5771 81.957 72.815C82.7191 72.0529 83.4812 71.6718 84.2433 71.2908C85.0054 70.9097 86.1486 70.9097 86.9107 71.2908C87.6728 71.6718 88.4349 72.0529 89.197 72.815C89.9591 73.5771 90.3402 74.3392 90.3402 75.1013C90.3402 75.8634 90.3402 76.6255 89.9591 77.7687C89.5781 78.5308 89.197 79.2929 88.4349 80.055C87.6728 80.8171 86.9107 81.5792 86.1486 81.5792Z" fill="white"/>
</svg>
