<svg width="160" height="140" viewBox="0 0 160 140" fill="none" xmlns="http://www.w3.org/2000/svg">
<path d="M132.746 110.605C134.013 116.307 138.448 124.86 135.597 126.761C131.795 129.612 117.54 118.841 112.788 121.059C108.036 122.96 109.937 139.116 104.868 140.066C99.7992 141.017 91.5625 126.128 86.177 126.128C80.7915 126.128 75.0893 140.7 69.7038 139.433C64.6351 138.166 63.6847 122.326 58.616 120.108C53.5473 117.891 41.1924 128.345 36.7573 125.494C32.3222 122.326 38.658 108.07 34.8565 104.586C31.055 100.784 14.5817 104.902 11.7305 100.784C8.87938 96.3489 21.8679 86.5283 19.9672 82.0932C18.0664 77.3413 0.642804 74.4902 0.00921634 69.7383C-0.307577 66.2535 7.61228 63.7192 12.9978 60.868C12.9978 60.868 12.9977 60.868 13.3145 60.868C18.3832 58.3337 22.8184 53.8986 25.6695 47.2459V46.9291C27.8871 41.2268 28.5207 36.1581 27.2535 31.0894C26.6199 25.3871 21.2343 15.5665 24.4023 13.349C28.2038 10.4978 42.4595 21.2688 47.2115 19.0513C51.6466 17.1505 50.0626 0.994016 55.1313 0.0436353C60.2 -0.906746 68.4366 13.9826 73.8221 13.9826C78.8908 13.9826 84.9099 -0.589962 90.2954 0.677213C95.3641 1.94439 96.3145 17.7841 101.383 20.0016C106.452 22.2192 118.807 11.765 123.242 14.6161C127.677 17.7841 121.341 32.0398 125.143 35.8413C128.944 39.6428 145.417 35.5245 148.269 39.6428C151.12 44.078 138.131 53.8986 140.032 58.6505C141.616 63.4024 159.356 66.2535 159.99 71.0054C160.307 74.1734 153.02 76.7077 147.952 79.5588C147.952 79.5588 137.814 86.5283 134.647 93.4978L134.33 94.4481C131.479 99.8336 131.162 105.219 132.746 110.605Z" fill="#F76746"/>
<path d="M67.4863 48.5151C67.4863 48.1983 67.1696 47.5648 66.8528 47.248C66.536 46.6144 65.9024 45.9808 65.2688 45.3472C64.6352 44.7136 64.0016 44.3968 63.0512 43.7632C61.4673 43.1296 59.8833 42.8129 58.6161 43.1297C57.0322 43.4464 55.7649 44.08 54.4978 45.0304C53.2306 45.9808 52.2802 47.5648 51.6466 49.1487C51.013 50.7327 50.6963 52.6335 50.6963 54.2174C50.6963 55.8014 51.3299 57.3854 52.2803 58.6525C53.2306 59.9197 54.4978 60.8701 55.765 61.5037C56.3986 61.8205 57.3489 62.1373 58.2993 62.1373C59.2497 62.1373 59.8832 62.1373 60.8336 61.8205C61.4672 61.5037 62.1008 61.5037 62.7344 61.1869L61.7841 63.4045L64.952 64.6716L74.4558 42.1793L71.2879 40.9121L67.4863 48.5151ZM63.0512 57.7022C62.1008 58.3357 61.4673 58.9693 60.2001 58.9693C59.2497 59.2861 58.2994 58.9693 57.349 58.6525C56.3986 58.3358 55.4482 57.7022 55.1314 56.7518C54.4978 55.8014 54.181 54.851 54.181 53.9006C54.181 52.9503 54.181 51.6831 54.8146 50.7327C55.4482 49.4655 56.0818 48.8319 56.7153 47.8816C57.6657 47.248 58.2993 46.6144 59.5665 46.6144C60.5169 46.2976 61.4672 46.6144 62.4176 46.9312C63.368 47.248 64.3184 47.8816 64.6352 48.832C65.2688 49.7823 65.5855 50.7327 65.5855 51.6831C65.5855 52.6335 65.5856 53.9006 64.952 54.851C64.6352 56.1182 64.0016 57.0686 63.0512 57.7022Z" fill="white"/>
<path d="M87.5919 48.0666L78.0127 70.501L81.2176 71.8694L90.7968 49.4351L87.5919 48.0666Z" fill="white"/>
<path d="M113.738 68.7894C113.738 68.1559 113.421 67.5223 113.105 66.8887C112.788 66.2551 112.154 65.6215 111.521 64.9879C110.887 64.3543 110.254 64.0375 109.303 63.7207C107.719 63.0872 106.452 62.7704 104.868 63.0872C103.284 63.404 102.017 64.0375 100.75 64.9879C99.4825 65.9383 98.5322 67.5223 97.8986 69.1062C97.265 70.6902 96.9482 72.2742 96.9482 74.175C96.9482 75.7589 97.5818 77.3429 98.2154 78.61C99.1658 79.8772 100.116 80.8276 101.383 81.4612C102.334 81.778 102.967 82.0948 103.918 82.0948C104.868 82.0948 105.502 82.0948 106.452 81.778C107.402 81.4612 108.036 81.4612 108.67 80.8276L107.719 83.3619L111.204 84.9459L118.49 68.1559L115.005 66.5719L113.738 68.7894ZM109.62 77.3429C108.67 77.9765 108.036 78.2932 107.086 78.61C106.135 78.9268 105.185 78.61 104.234 78.2933C103.284 77.9765 102.334 77.3429 102.017 76.3925C101.383 75.4421 101.067 74.4917 101.067 73.5413C101.067 72.591 101.067 71.3238 101.7 70.3734C102.017 69.423 102.65 68.4727 103.601 67.8391C104.551 67.2055 105.185 66.8887 106.135 66.5719C107.086 66.2551 108.036 66.5719 108.986 66.8887C109.937 67.2055 110.887 67.8391 111.204 68.7894C111.838 69.7398 112.154 70.6902 112.154 71.6406C112.154 72.591 112.154 73.8581 111.521 74.8085C110.887 75.7589 110.254 76.7093 109.62 77.3429Z" fill="white"/>
</svg>
