<svg width="72" height="72" viewBox="0 0 72 72" fill="none" xmlns="http://www.w3.org/2000/svg">
<mask id="path-1-inside-1_1377_12723" fill="white">
<path fill-rule="evenodd" clip-rule="evenodd" d="M36 72C55.8823 72 72 55.8823 72 36C72 16.1177 55.8823 0 36 0C16.1177 0 0 16.1177 0 36C0 55.8823 16.1177 72 36 72ZM30.375 49.2049L50.625 37.8864C52.125 37.048 52.125 34.952 50.625 34.1136L30.375 22.7951C28.875 21.9567 27 23.0047 27 24.6815L27 47.3185C27 48.9953 28.875 50.0433 30.375 49.2049Z"/>
</mask>
<path fill-rule="evenodd" clip-rule="evenodd" d="M36 72C55.8823 72 72 55.8823 72 36C72 16.1177 55.8823 0 36 0C16.1177 0 0 16.1177 0 36C0 55.8823 16.1177 72 36 72ZM30.375 49.2049L50.625 37.8864C52.125 37.048 52.125 34.952 50.625 34.1136L30.375 22.7951C28.875 21.9567 27 23.0047 27 24.6815L27 47.3185C27 48.9953 28.875 50.0433 30.375 49.2049Z" fill="white" fill-opacity="0.5"/>
<path d="M50.625 37.8864L51.1129 38.7593H51.1129L50.625 37.8864ZM30.375 49.2049L29.8871 48.332L30.375 49.2049ZM50.625 34.1136L51.1129 33.2407H51.1129L50.625 34.1136ZM30.375 22.7951L30.8629 21.9222L30.375 22.7951ZM27 24.6815H28H27ZM27 47.3185H26H27ZM71 36C71 55.33 55.33 71 36 71V73C56.4345 73 73 56.4345 73 36H71ZM36 1C55.33 1 71 16.67 71 36H73C73 15.5655 56.4345 -1 36 -1V1ZM1 36C1 16.67 16.67 1 36 1V-1C15.5655 -1 -1 15.5655 -1 36H1ZM36 71C16.67 71 1 55.33 1 36H-1C-1 56.4345 15.5655 73 36 73V71ZM50.1371 37.0135L29.8871 48.332L30.8629 50.0778L51.1129 38.7593L50.1371 37.0135ZM50.1371 34.9865C50.9543 35.4432 50.9543 36.5568 50.1371 37.0135L51.1129 38.7593C53.2957 37.5393 53.2957 34.4607 51.1129 33.2407L50.1371 34.9865ZM29.8871 23.668L50.1371 34.9865L51.1129 33.2407L30.8629 21.9222L29.8871 23.668ZM28 24.6815C28 23.823 29.0054 23.1751 29.8871 23.668L30.8629 21.9222C28.7446 20.7382 26 22.1864 26 24.6815H28ZM28 47.3185L28 24.6815H26L26 47.3185H28ZM29.8871 48.332C29.0054 48.8249 28 48.177 28 47.3185H26C26 49.8136 28.7446 51.2618 30.8629 50.0778L29.8871 48.332Z" fill="white" fill-opacity="0.2" mask="url(#path-1-inside-1_1377_12723)"/>
</svg>
