<svg xmlns="http://www.w3.org/2000/svg" viewBox="0 0 81.23 73.66">
    <defs>
        <style>.cls-1{fill:#00b4be;}.cls-2{fill:#fff;}</style>
    </defs>
    <g id="Layer_2" data-name="Layer 2">
        <g id="Layer_1-2" data-name="Layer 1">
            <path class="cls-1"
                d="M81.23,36.35v.49c0,.84,0,1.66-.06,2.47a40.22,40.22,0,0,1-2.47,12.5C73,66.76,58.4,73.52,41.18,73.66h-.67C18.51,73.74.59,62.19,0,38v-.61c0-.17,0-.34,0-.5v-.13C0,12.11,17,.87,38.43.06c.29,0,.58,0,.86,0h2.5c19.09.35,34.87,9.5,38.6,28a41.91,41.91,0,0,1,.74,5.56C81.19,34.5,81.22,35.41,81.23,36.35Z" />
            <path class="cls-2"
                d="M34.06,19.21v11.2A9.43,9.43,0,0,0,32.57,29a11.16,11.16,0,0,0-3.05-1.58,11.25,11.25,0,0,0-9.43,1.07A11.72,11.72,0,0,0,16,33.05a13.78,13.78,0,0,0-1.51,6.54A13.57,13.57,0,0,0,16,46.14a11.81,11.81,0,0,0,4.17,4.52,11,11,0,0,0,6,1.65,10.06,10.06,0,0,0,3.29-.56,10.36,10.36,0,0,0,2.84-1.49,8.63,8.63,0,0,0,1.79-1.78v3.36h4.8V19.21ZM33.29,44a7.67,7.67,0,0,1-2.63,3,7.28,7.28,0,0,1-7.73,0,7.67,7.67,0,0,1-2.63-3,10.59,10.59,0,0,1,0-8.81,7.6,7.6,0,0,1,2.63-3,7.23,7.23,0,0,1,7.73,0,7.6,7.6,0,0,1,2.63,3,10.59,10.59,0,0,1,0,8.81Z" />
            <path class="cls-2"
                d="M64.6,38.71A12.74,12.74,0,0,0,63.83,34a10.9,10.9,0,0,0-5.89-6.24,10.74,10.74,0,0,0-4.43-.91,13,13,0,0,0-5,1,11.32,11.32,0,0,0-4,2.71A12.38,12.38,0,0,0,42,34.61,14.31,14.31,0,0,0,41,39.87a12.41,12.41,0,0,0,1.65,6.43,11.86,11.86,0,0,0,4.57,4.4,13.61,13.61,0,0,0,6.68,1.61,13.21,13.21,0,0,0,3.52-.49,16.68,16.68,0,0,0,3.4-1.33,18.28,18.28,0,0,0,3.43-2.42l-3.13-2.93a12.11,12.11,0,0,1-3.37,2.19,9.39,9.39,0,0,1-3.38.6,9.62,9.62,0,0,1-4.52-1,7.45,7.45,0,0,1-3-2.91,8.49,8.49,0,0,1-1-3.24H64.55Zm-4.89-1.77H46A8.5,8.5,0,0,1,46.67,35a6.12,6.12,0,0,1,2.6-2.79,8.63,8.63,0,0,1,4.24-1,6.37,6.37,0,0,1,2.94.7,6.44,6.44,0,0,1,2.23,1.91,5.41,5.41,0,0,1,1,2.75Z" />
            <path class="cls-2"
                d="M81.17,39.31a40.22,40.22,0,0,1-2.47,12.5,11.07,11.07,0,0,1-3.37.5,13.86,13.86,0,0,1-5.54-1.07,11.17,11.17,0,0,1-4.1-3.17l3.13-2.94A9.42,9.42,0,0,0,72,47.63a9.32,9.32,0,0,0,3.75.72,5.55,5.55,0,0,0,1.56-.21,3.73,3.73,0,0,0,1.26-.63,2.81,2.81,0,0,0,.82-1,3,3,0,0,0,.28-1.28,2.45,2.45,0,0,0-.89-2,8.35,8.35,0,0,0-1.47-.72,24.68,24.68,0,0,0-2.58-.81,22.09,22.09,0,0,1-4.43-1.59,8.41,8.41,0,0,1-2.65-2,6,6,0,0,1-1-1.93,7.68,7.68,0,0,1-.32-2.31,5.92,5.92,0,0,1,1.16-3.63,7.89,7.89,0,0,1,3.15-2.5,10.58,10.58,0,0,1,4.44-.9,13,13,0,0,1,3.43.46,11.15,11.15,0,0,1,1.91.7,41.91,41.91,0,0,1,.74,5.56l0,0a9.16,9.16,0,0,0-1.74-1.36,10,10,0,0,0-2.12-1,5.9,5.9,0,0,0-1.95-.37,7.9,7.9,0,0,0-1.77.18,4,4,0,0,0-1.33.56,2.52,2.52,0,0,0-.82.93,2.88,2.88,0,0,0-.28,1.26,3.22,3.22,0,0,0,.31,1.14,2.55,2.55,0,0,0,.72.91,7.38,7.38,0,0,0,1.54.79,16.58,16.58,0,0,0,2.61.79,22.53,22.53,0,0,1,3.84,1.33A8.83,8.83,0,0,1,81.17,39.31Z" />
        </g>
    </g>
</svg>